<svg xmlns="http://www.w3.org/2000/svg" version="1.1" xmlns:xlink="http://www.w3.org/1999/xlink" xmlns:svgjs="http://svgjs.com/svgjs" width="720" height="1100" preserveAspectRatio="none" viewBox="0 0 720 1100"><g clip-path="url(&quot;#SvgjsClipPath1128&quot;)" fill="none"><rect width="720" height="1100" x="0" y="0" fill="rgba(255, 255, 255, 1)"></rect><circle r="120" cx="3.72" cy="-81.1" stroke="#34e1ff" stroke-opacity="1" stroke-width="2"></circle><circle r="120" cx="494.07" cy="417.53" stroke="#34e1ff" stroke-opacity="1" stroke-width="2"></circle><circle r="231.215" cx="537" cy="352.94" stroke="#34e1ff" stroke-opacity="1" stroke-width="2"></circle><circle r="124.7" cx="611.06" cy="853.86" stroke="#34e1ff" stroke-opacity="1" stroke-width="2"></circle><circle r="230.73" cx="177.6" cy="1074.73" stroke="#34e1ff" stroke-opacity="1" stroke-width="2"></circle><circle r="161.045" cx="460.08" cy="887.25" stroke="#34e1ff" stroke-opacity="1" stroke-width="2"></circle><circle r="68.59" cx="313.41" cy="370.91" stroke="#34e1ff" stroke-opacity="1" stroke-width="2"></circle><circle r="128.525" cx="486.1" cy="909.64" stroke="#34e1ff" stroke-opacity="1" stroke-width="2"></circle><circle r="231.975" cx="645.16" cy="478.06" stroke="#34e1ff" stroke-opacity="1" stroke-width="2"></circle><circle r="168.73" cx="687.45" cy="114.4" stroke="#34e1ff" stroke-opacity="1" stroke-width="2"></circle><circle r="115.855" cx="356.32" cy="231.04" stroke="#34e1ff" stroke-opacity="1" stroke-width="2"></circle><circle r="154.8" cx="118.42" cy="505.95" stroke="#34e1ff" stroke-opacity="1" stroke-width="2"></circle><circle r="223.745" cx="320.34" cy="135.77" stroke="#34e1ff" stroke-opacity="1" stroke-width="2"></circle><circle r="150.935" cx="179.39" cy="616.48" stroke="#34e1ff" stroke-opacity="1" stroke-width="2"></circle><circle r="144.46" cx="70.29" cy="57.27" stroke="#34e1ff" stroke-opacity="1" stroke-width="2"></circle><circle r="127.025" cx="339.9" cy="637.77" stroke="#34e1ff" stroke-opacity="1" stroke-width="2"></circle><circle r="119.435" cx="38.65" cy="801.46" stroke="#34e1ff" stroke-opacity="1" stroke-width="2"></circle><circle r="168.745" cx="353.38" cy="959.51" stroke="#34e1ff" stroke-opacity="1" stroke-width="2"></circle><circle r="79.15" cx="181.8" cy="754.78" stroke="#34e1ff" stroke-opacity="1" stroke-width="2"></circle><circle r="126.425" cx="127.79" cy="167.32" stroke="#34e1ff" stroke-opacity="1" stroke-width="2"></circle></g><defs><clipPath id="SvgjsClipPath1128"><rect width="720" height="1100" x="0" y="0"></rect></clipPath></defs></svg>